<?xml version="1.0" standalone="no"?>
<!DOCTYPE svg PUBLIC "-//W3C//DTD SVG 20010904//EN"
 "http://www.w3.org/TR/2001/REC-SVG-20010904/DTD/svg10.dtd">
<svg version="1.0" xmlns="http://www.w3.org/2000/svg"
 width="800.000000pt" height="640.000000pt" viewBox="0 0 800.000000 640.000000"
 preserveAspectRatio="xMidYMid meet">

<g transform="translate(0.000000,640.000000) scale(0.100000,-0.100000)"
fill="#000000" stroke="none">
<path d="M5335 5723 c-397 -14 -1003 -13 -2140 3 -506 8 -579 3 -672 -45 -134
-68 -194 -140 -980 -1179 -441 -582 -567 -755 -762 -1047 -144 -215 -178 -272
-215 -367 -34 -88 -34 -119 5 -163 17 -19 36 -35 43 -35 6 0 47 -17 91 -37 78
-35 85 -37 235 -43 85 -4 236 -15 335 -23 99 -9 324 -24 500 -32 176 -9 433
-22 570 -30 138 -8 367 -19 510 -25 143 -5 361 -15 485 -20 124 -6 405 -17
625 -25 537 -20 673 -35 821 -85 133 -46 228 -138 304 -294 60 -122 133 -342
150 -449 15 -93 8 -277 -15 -382 -37 -173 -153 -334 -289 -400 -184 -90 -471
-103 -1011 -47 -337 35 -586 54 -980 77 -148 8 -385 22 -525 30 -521 30 -1335
62 -1650 66 -115 2 -145 -1 -203 -20 -37 -12 -83 -36 -102 -53 -44 -38 -69
-116 -63 -199 8 -115 39 -125 403 -122 149 0 376 6 505 12 447 21 935 12 1675
-29 193 -11 438 -24 545 -30 247 -13 415 -24 765 -51 204 -15 328 -19 455 -16
283 9 380 29 515 109 88 51 262 225 365 363 88 119 439 657 645 990 82 132
318 512 525 845 409 658 526 857 625 1063 151 313 192 538 166 917 -13 195
-32 275 -101 417 -63 129 -123 193 -233 246 -131 64 -269 105 -392 117 -151
14 -1042 10 -1530 -7z"/>
<path d="M863 2528 c3 -13 9 -78 13 -145 l7 -123 451 0 c436 0 990 -9 1891
-31 804 -19 1030 -22 1109 -14 69 6 83 11 108 35 35 35 37 78 5 108 -13 12
-59 31 -103 43 -75 21 -110 22 -744 30 -666 8 -943 16 -1530 44 -585 28 -894
46 -1045 61 -82 7 -154 14 -159 14 -4 0 -6 -10 -3 -22z"/>
<path d="M876 2098 c-6 -44 -25 -252 -23 -254 6 -3 759 17 977 25 365 15 913
13 1376 -4 697 -26 1018 -34 1068 -25 56 8 76 29 76 77 0 93 -94 112 -665 133
-159 6 -344 15 -410 20 -66 5 -259 10 -430 10 -328 0 -867 13 -1225 30 -118 5
-333 12 -477 16 l-262 6 -5 -34z"/>
<path d="M965 1693 l-140 -4 -24 -110 c-13 -60 -22 -112 -19 -114 2 -2 296 -9
653 -14 741 -12 968 -18 1145 -31 69 -5 285 -19 480 -30 195 -11 427 -27 515
-36 373 -34 539 -46 690 -47 143 -1 166 1 215 21 92 36 140 97 140 176 0 72
-87 92 -455 106 -305 11 -684 33 -1055 61 -229 17 -383 20 -1135 23 -478 2
-933 1 -1010 -1z"/>
</g>
</svg>
