<?xml version="1.0" standalone="no"?>
<!DOCTYPE svg PUBLIC "-//W3C//DTD SVG 20010904//EN"
 "http://www.w3.org/TR/2001/REC-SVG-20010904/DTD/svg10.dtd">
<svg version="1.0" xmlns="http://www.w3.org/2000/svg"
 width="512.000000pt" height="512.000000pt" viewBox="0 0 512.000000 512.000000"
 preserveAspectRatio="xMidYMid meet">

<g transform="translate(0.000000,512.000000) scale(0.100000,-0.100000)"
fill="#000000" stroke="none">
<path d="M423 4826 c-75 -47 -83 -78 -83 -322 l0 -210 -65 4 c-84 6 -144 -16
-200 -73 -81 -81 -76 46 -73 -1640 l3 -1500 22 -40 c25 -46 75 -97 118 -117
17 -8 452 -120 969 -249 l938 -234 23 -45 c29 -57 67 -93 125 -119 42 -19 64
-21 360 -21 296 0 318 2 360 21 58 26 96 62 125 119 l23 45 938 234 c517 129
955 242 974 252 42 21 91 71 116 119 18 34 19 94 22 1535 3 1686 8 1559 -73
1640 -56 57 -116 79 -200 73 l-65 -4 0 210 c0 192 -2 213 -21 253 -26 54 -88
93 -147 93 -60 0 -426 -64 -642 -112 -395 -87 -718 -192 -965 -313 -172 -83
-300 -171 -385 -262 l-59 -63 -78 79 c-213 215 -639 399 -1252 541 -251 58
-583 118 -691 126 -68 5 -79 3 -117 -20z m252 -171 c837 -137 1475 -364 1696
-603 84 -90 93 -116 97 -259 l4 -123 -100 0 c-91 0 -101 2 -126 25 -14 13 -26
29 -26 35 0 20 -80 97 -120 115 -23 10 -388 105 -813 210 l-772 192 -3 216
c-1 120 1 217 6 217 4 0 75 -11 157 -25z m3935 -190 l0 -214 -37 -11 c-21 -5
-371 -93 -778 -195 -407 -102 -753 -191 -770 -198 -41 -16 -101 -71 -126 -117
-29 -51 -54 -60 -159 -60 l-90 0 0 116 c0 148 18 191 124 292 241 229 819 430
1641 573 88 15 168 28 178 28 16 1 17 -16 17 -214z m-3472 -550 c472 -118 871
-219 885 -224 l27 -11 0 -1529 0 -1529 -917 229 c-819 205 -920 232 -941 255
l-22 25 0 1465 c0 1273 2 1469 15 1494 16 32 27 38 68 39 15 1 413 -96 885
-214z m3780 195 c12 -11 24 -31 27 -43 3 -12 4 -680 3 -1484 -3 -1447 -3
-1463 -23 -1482 -15 -15 -246 -77 -935 -250 l-915 -230 -3 1526 c-1 895 2
1531 7 1536 12 12 1748 446 1787 447 17 0 40 -9 52 -20z m-2353 -612 c171 -1
316 1 323 5 9 7 12 -297 12 -1503 l0 -1512 -29 -29 -29 -29 -284 0 c-297 1
-302 1 -326 47 -9 16 -12 402 -12 1528 0 1430 1 1506 18 1501 9 -3 157 -6 327
-8z"/>
<path d="M3972 3281 c-650 -141 -642 -138 -642 -208 0 -45 37 -83 81 -83 38 0
1190 245 1232 262 34 13 47 36 47 81 0 47 -34 77 -86 76 -21 0 -306 -58 -632
-128z"/>
<path d="M3981 2856 c-674 -146 -651 -139 -651 -213 0 -41 37 -83 73 -83 13 0
298 59 633 131 661 141 654 139 654 205 0 18 -3 40 -6 49 -7 17 -55 45 -76 44
-7 0 -289 -60 -627 -133z"/>
<path d="M3975 2429 c-546 -118 -602 -132 -622 -155 -34 -38 -31 -86 8 -118
17 -14 35 -26 41 -26 12 0 1169 247 1220 261 21 5 44 19 53 32 39 56 -1 138
-67 136 -18 -1 -303 -59 -633 -130z"/>
</g>
</svg>
