<?xml version="1.0" standalone="no"?>
<!DOCTYPE svg PUBLIC "-//W3C//DTD SVG 20010904//EN"
 "http://www.w3.org/TR/2001/REC-SVG-20010904/DTD/svg10.dtd">
<svg version="1.0" xmlns="http://www.w3.org/2000/svg"
 width="1024.000000pt" height="1024.000000pt" viewBox="0 0 1024.000000 1024.000000"
 preserveAspectRatio="xMidYMid meet">

<g transform="translate(0.000000,1024.000000) scale(0.100000,-0.100000)"
fill="#000000" stroke="none">
<path d="M0 5120 l0 -5120 5120 0 5120 0 0 5120 0 5120 -5120 0 -5120 0 0
-5120z m3245 2075 c178 -18 362 -45 505 -76 119 -25 322 -76 352 -88 13 -5 45
-15 71 -22 26 -6 45 -14 43 -16 -3 -3 -20 0 -38 5 -56 17 -98 22 -98 12 0 -6
7 -10 15 -10 8 0 15 -4 15 -10 0 -5 -8 -10 -17 -10 -15 0 -16 -2 -3 -10 12 -7
8 -10 -15 -11 -26 0 -27 -2 -10 -9 17 -7 17 -9 3 -9 -10 -1 -18 -6 -18 -12 0
-7 -12 -10 -29 -7 -39 6 -31 -8 9 -15 36 -7 46 -10 83 -25 16 -7 33 -12 38
-12 27 0 452 -145 546 -186 47 -21 93 -29 93 -15 0 6 -9 11 -19 11 -26 0 -37
18 -15 27 20 7 44 -21 44 -52 0 -16 7 -21 28 -22 15 -1 21 1 15 4 -8 2 -13 22
-13 44 l0 39 58 1 c46 0 52 2 34 10 -13 5 -29 6 -35 3 -9 -5 -9 -4 0 6 9 10
18 9 46 -1 20 -7 33 -17 30 -23 -4 -5 0 -7 8 -4 8 3 23 0 32 -7 16 -12 18
-118 20 -1813 1 -990 -1 -1803 -4 -1806 -6 -6 -13 -3 -259 94 -507 199 -1043
324 -1599 372 l-141 12 2 900 c2 578 5 785 8 576 3 -179 6 -270 8 -202 l2 122
39 0 c32 0 40 4 45 23 5 18 8 20 16 7 14 -21 12 -30 -5 -30 -10 0 -15 -9 -14
-27 0 -16 3 -22 6 -15 2 6 9 12 15 12 6 0 8 -16 4 -43 -4 -24 -3 -54 2 -67 5
-14 11 115 15 340 9 448 7 905 -2 865 -7 -30 -8 -30 -18 15 l-11 45 -1 -42
c-1 -30 -5 -43 -15 -43 -8 0 -29 -15 -47 -32 -32 -31 -34 -38 -40 -123 -3 -49
-6 239 -7 642 l-2 732 33 -5 c17 -2 104 -11 192 -19z m3975 -1804 c0 -1724 -1
-1820 -17 -1825 -10 -2 -58 -7 -108 -11 -182 -13 -515 -58 -655 -90 -36 -8
-108 -23 -160 -35 -112 -24 -166 -38 -360 -96 -215 -64 -296 -93 -634 -230
-33 -13 -62 -21 -65 -18 -3 3 -6 814 -6 1803 0 1605 2 1799 15 1813 15 14 141
69 285 123 33 13 82 33 110 45 117 51 509 170 700 214 274 62 665 120 843 125
l52 1 0 -1819z m-3050 1579 c-8 -5 -19 -10 -25 -10 -5 0 -3 5 5 10 8 5 20 10
25 10 6 0 3 -5 -5 -10z m-93 -56 c-3 -3 -12 -4 -19 -1 -8 3 -5 6 6 6 11 1 17
-2 13 -5z m418 -12 c-3 -3 -11 0 -18 7 -9 10 -8 11 6 5 10 -3 15 -9 12 -12z
m255 -87 c0 -2 -6 -5 -13 -8 -8 -3 -14 1 -14 8 0 7 6 11 14 8 7 -3 13 -6 13
-8z m110 -50 c16 -9 19 -14 9 -15 -8 0 -24 7 -35 15 -24 18 -7 19 26 0z m-40
-9 c0 -3 -4 -8 -10 -11 -5 -3 -10 -1 -10 4 0 6 5 11 10 11 6 0 10 -2 10 -4z
m-1990 -581 c0 -323 -3 -495 -10 -495 -5 0 -11 19 -12 43 l-1 42 -4 -42 c-2
-24 -8 -43 -13 -43 -11 0 -70 -59 -70 -71 0 -5 -5 -9 -10 -9 -6 0 -22 -12 -35
-27 -21 -24 -26 -26 -35 -13 -7 11 -10 4 -10 -27 0 -50 -19 -69 -21 -21 -1 26
-4 21 -11 -22 -23 -125 -31 -3 -36 588 l-5 592 137 0 136 0 0 -495z m4842
-927 c-2 -1352 -6 -1588 -22 -1528 -4 14 -6 39 -5 55 1 17 0 21 -2 10 -3 -11
-9 -24 -14 -29 -5 -6 -10 -24 -10 -40 -1 -25 -3 -26 -6 -8 l-4 23 -20 -26
c-11 -14 -25 -25 -30 -25 -12 0 -29 -18 -45 -45 -6 -10 -19 -23 -29 -29 -35
-20 -44 -33 -48 -72 -3 -30 -4 -24 -7 26 l-4 65 -6 -70 c-4 -38 -7 647 -8
1523 l-2 1592 133 0 132 0 -3 -1422z m-4522 -200 c0 -5 -4 -8 -10 -8 -5 0 -10
10 -10 23 0 18 2 19 10 7 5 -8 10 -18 10 -22z m-294 -1639 c17 -17 41 -23 110
-30 49 -5 163 -16 254 -24 381 -37 729 -105 1055 -206 150 -46 326 -108 338
-118 10 -10 -1991 -14 -2028 -5 l-28 7 8 571 c8 590 20 1017 24 886 2 -41 6
-97 11 -125 6 -40 8 -26 9 73 1 139 20 171 23 40 l2 -83 3 83 4 82 54 0 55 0
0 40 c0 36 3 40 25 40 23 0 24 -2 28 -82 l3 -83 2 101 c1 56 5 130 10 165 4
36 9 -239 12 -623 5 -686 5 -687 26 -709z m4561 39 c-3 -7 -5 -2 -5 12 0 14 2
19 5 13 2 -7 2 -19 0 -25z m-114 -75 c-7 -2 -21 -2 -30 0 -10 3 -4 5 12 5 17
0 24 -2 18 -5z m-63 -10 c-19 -8 -40 -29 -40 -41 0 -5 -9 -17 -21 -28 l-21
-19 24 -6 c15 -5 2 -8 -37 -9 -33 -1 -54 -4 -47 -7 27 -11 9 -23 -35 -24 -33
-2 -39 -3 -19 -6 16 -3 97 0 179 6 166 12 222 30 266 82 23 27 26 29 32 12 9
-23 11 -100 3 -130 l-6 -23 -257 -1 c-141 -1 -248 -3 -238 -6 32 -8 17 -23
-25 -25 l-43 -1 45 -7 c31 -5 36 -7 17 -8 -28 -2 -57 -22 -57 -40 0 -5 -9 -17
-21 -28 -20 -18 -50 -19 -665 -24 -354 -3 -644 -3 -644 0 0 15 343 125 570
184 295 77 781 152 990 154 36 0 58 -2 50 -5z m-72 -120 c-10 -2 -26 -2 -35 0
-10 3 -2 5 17 5 19 0 27 -2 18 -5z"/>
<path d="M4008 6943 c6 -2 18 -2 25 0 6 3 1 5 -13 5 -14 0 -19 -2 -12 -5z"/>
<path d="M4970 6690 c0 -5 5 -10 10 -10 6 0 10 5 10 10 0 6 -4 10 -10 10 -5 0
-10 -4 -10 -10z"/>
<path d="M4960 6660 c0 -5 5 -10 11 -10 5 0 7 5 4 10 -3 6 -8 10 -11 10 -2 0
-4 -4 -4 -10z"/>
<path d="M4996 6661 c-4 -7 -5 -15 -2 -18 9 -9 19 4 14 18 -4 11 -6 11 -12 0z"/>
<path d="M4865 6631 c-3 -5 -1 -12 5 -16 5 -3 10 1 10 9 0 18 -6 21 -15 7z"/>
<path d="M3121 4864 c0 -11 3 -14 6 -6 3 7 2 16 -1 19 -3 4 -6 -2 -5 -13z"/>
<path d="M3121 4784 c0 -11 3 -14 6 -6 3 7 2 16 -1 19 -3 4 -6 -2 -5 -13z"/>
<path d="M3176 4156 c-5 -93 -6 -200 -3 -237 6 -66 7 -69 58 -118 29 -28 60
-51 68 -51 14 0 14 -1 1 -10 -12 -8 -11 -11 8 -16 18 -5 20 -9 10 -15 -10 -7
-8 -9 7 -10 27 -3 37 -5 55 -12 8 -3 71 -13 140 -21 69 -9 168 -23 220 -31 52
-9 106 -14 120 -12 16 3 11 5 -14 6 -29 1 -37 4 -32 16 4 10 -3 17 -22 21 -44
9 -49 12 -22 13 27 1 19 15 -21 35 -12 6 -30 24 -38 39 -9 15 -27 33 -40 40
-14 7 -32 25 -40 40 -9 15 -27 33 -40 40 -14 7 -32 25 -40 40 -9 15 -27 33
-40 40 -14 7 -32 25 -40 40 -9 15 -27 33 -41 40 -13 7 -30 24 -37 37 -7 14
-24 32 -39 41 -16 8 -35 27 -43 43 -9 15 -27 32 -41 39 -13 7 -30 23 -36 36
-19 37 -34 48 -36 26 0 -11 -4 0 -7 25 -5 31 -9 -6 -15 -124z m537 -493 c-7
-2 -21 -2 -30 0 -10 3 -4 5 12 5 17 0 24 -2 18 -5z m44 -9 c-3 -3 -12 -4 -19
-1 -8 3 -5 6 6 6 11 1 17 -2 13 -5z"/>
<path d="M3800 3676 c0 -2 11 -6 25 -8 13 -3 22 -1 19 3 -5 9 -44 13 -44 5z"/>
<path d="M6965 7039 c-86 -9 -317 -48 -324 -55 -2 -2 14 -4 37 -4 22 0 43 -4
46 -9 3 -4 -7 -6 -22 -3 l-27 5 23 -25 c12 -13 22 -28 22 -32 0 -9 20 -27 45
-42 10 -6 23 -19 29 -29 6 -11 16 -24 21 -30 6 -5 19 -15 30 -21 10 -6 23 -19
29 -29 14 -24 27 -37 51 -51 10 -6 23 -19 29 -29 14 -25 33 -45 42 -45 4 0 16
-7 26 -17 17 -15 18 -15 20 3 1 10 4 -6 8 -36 5 -37 8 10 11 143 5 294 5 310
-6 312 -5 1 -46 -2 -90 -6z"/>
<path d="M7611 3774 c0 -11 3 -14 6 -6 3 7 2 16 -1 19 -3 4 -6 -2 -5 -13z"/>
</g>
</svg>
