<?xml version="1.0" standalone="no"?>
<!DOCTYPE svg PUBLIC "-//W3C//DTD SVG 20010904//EN"
 "http://www.w3.org/TR/2001/REC-SVG-20010904/DTD/svg10.dtd">
<svg version="1.0" xmlns="http://www.w3.org/2000/svg"
 width="360.000000pt" height="508.000000pt" viewBox="0 0 360.000000 508.000000"
 preserveAspectRatio="xMidYMid meet">

<g transform="translate(0.000000,508.000000) scale(0.100000,-0.100000)"
fill="#000000" stroke="none">
<path d="M1745 4928 c-565 -51 -1075 -384 -1328 -866 -49 -92 -103 -230 -132
-332 -47 -169 -59 -256 -59 -435 0 -265 39 -436 150 -663 l55 -112 62 73 c34
40 80 95 102 122 22 28 42 52 45 55 9 9 63 74 98 118 19 22 43 51 54 64 11 13
37 43 57 68 20 25 41 51 48 58 7 7 29 34 50 60 21 26 43 52 48 58 6 6 25 29
43 52 19 23 42 50 52 62 10 12 33 39 52 62 18 23 38 46 43 52 6 6 62 73 125
150 62 76 135 159 162 185 62 60 156 116 238 143 91 29 252 35 345 14 353 -83
573 -446 480 -795 -8 -30 -10 -50 -6 -45 5 5 187 221 406 479 218 259 410 485
426 504 l29 34 -21 36 c-55 94 -144 205 -244 306 -361 361 -863 540 -1380 493z"/>
</g>
</svg>
